<svg width="300" height="300" viewBox="0 0 300 300" xmlns="http://www.w3.org/2000/svg">
  <circle cx="150" cy="150" r="120" fill="#0d1117"/>
  <circle cx="150" cy="150" r="80" fill="#161b22"/>
  
  <text x="150" y="40" font-size="18" fill="#58a6ff" text-anchor="middle">Top Languages</text>
  
  <!-- JavaScript (40%) -->
  <path d="M150,150 L150,30 A120,120 0 0,1 258.6,117.6 Z" fill="#f1e05a"/>
  <!-- Python (30%) -->
  <path d="M150,150 L258.6,117.6 A120,120 0 0,1 222.6,240 Z" fill="#3572A5"/>
  <!-- TypeScript (20%) -->
  <path d="M150,150 L222.6,240 A120,120 0 0,1 150,270 Z" fill="#2b7489"/>
  <!-- Other (10%) -->
  <path d="M150,150 L150,270 A120,120 0 0,1 150,30 Z" fill="#8b949e"/>
  
  <!-- Legend -->
  <g transform="translate(20,200)">
    <rect x="0" y="0" width="15" height="15" fill="#f1e05a"/>
    <text x="25" y="12" font-size="14" fill="#c9d1d9">JavaScript 40%</text>
    
    <rect x="0" y="30" width="15" height="15" fill="#3572A5"/>
    <text x="25" y="42" font-size="14" fill="#c9d1d9">Python 30%</text>
    
    <rect x="0" y="60" width="15" height="15" fill="#2b7489"/>
    <text x="25" y="72" font-size="14" fill="#c9d1d9">TypeScript 20%</text>
    
    <rect x="0" y="90" width="15" height="15" fill="#8b949e"/>
    <text x="25" y="102" font-size="14" fill="#c9d1d9">Other 10%</text>
  </g>
</svg>
